<?xml version="1.0" encoding="UTF-8"?>
<svg id="Layer_1" xmlns="http://www.w3.org/2000/svg" viewBox="0 0 150 100.01" fill="#FFFFFF">
  <path d="M48.36,43.3c-7.29.28-15.44-.34-23.54-1.65-4.84-.78-9.26-2.82-13.74-4.63-1.32-.53-1.79-1.98-1.3-3.21.58-1.47,1.86-2.22,3.32-1.76,2.01.65,4,1.38,5.96,2.18,6.09,2.48,12.52,2.95,18.98,3.36,8.19.52,16.38.05,24.57.3,2.41.07,4.78.35,7.07,1.14,3.22,1.1,4.87,3.32,5.09,6.72.2,3.02-.35,6-.4,9-.07,4.51.01,9.02-.04,13.54-.03,2.28-.28,4.55-.79,6.79-.76,3.32-2.67,5.34-6.17,5.57-1.1.07-1.65.5-1.99,1.58-.68,2.16-2.02,3.98-3.65,5.52-1.75,1.65-3.82,2.32-6.3,1.9-4.92-.83-9.59-2.51-14.26-4.15-3.31-1.16-6.57-2.42-9.77-3.9-3.3-1.53-5.63-3.92-7.44-6.95-1.89-3.15-3.79-6.3-5.63-9.48-.81-1.4-1.76-2.25-3.55-2.25-2.33,0-4.66-.33-6.99-.53-1.9-.16-3.02-1.16-3.03-2.69,0-1.48,1.13-2.44,3.12-2.5.91-.03,1.38-.21,1.56-1.25.32-1.9,1.62-2.64,3.55-2.29,2.86.52,4.9,2.25,6.69,4.4,2.94,3.53,5.17,7.53,7.42,11.5,2.25,3.96,5.14,6.86,9.58,8.53,5.8,2.18,11.67,4.09,17.57,5.93,2.99.93,5.64-.89,5.96-3.97.12-1.1-.19-1.77-1.42-2-2.74-.52-5.35-1.49-7.95-2.52-3.41-1.35-5.05-3.87-5.27-7.41-.11-1.67-.35-3.32-.62-4.97-.23-1.35.02-2.63,1.3-3.35,1.31-.73,2.6-.58,3.57.68.52.68.92.43,1.32-.07,1.6-1.99,3.5-3.74,4.53-6.16.55-1.3,1.68-1.77,3.04-1.43,1.44.36,2.11,1.34,2,2.85-.09,1.15-.6,2.13-1.15,3.1-1.5,2.67-1.21,4.05,1.23,5.88.89.67,1.87,1.23,2.68,1.99,1.13,1.06,1.2,2.49.35,3.62-.84,1.12-2.19,1.37-3.58.62-2.12-1.15-4.09-2.51-5.45-4.57-.59-.9-1.14-.91-1.83-.14-.37.41-.82.76-1.2,1.17-.99,1.06-.9,1.97.38,2.7,2.38,1.37,4.93,2.37,7.64,2.84,1.43.25,2.69.69,3.72,1.71.62.62,1.36.9,2.24.98,1.34.13,2.19-.34,2.33-1.73.2-1.99.44-3.99.49-5.98.08-3.45.06-6.91.02-10.36-.03-2.62.11-5.23.56-7.82.13-.76.14-1.55.12-2.33-.04-2.01-.7-2.83-2.65-3.26-2.73-.6-5.53-.66-8.3-.75-3.01-.11-6.02-.02-9.95-.02Z"/>
  <path d="M99.64,37.88c8.03.07,16.04-.1,23.99-1.43,3.71-.62,7.14-2.13,10.66-3.35.79-.27,1.54-.66,2.33-.91,1.53-.48,2.97.16,3.49,1.46.55,1.38,0,2.73-1.57,3.39-5.24,2.2-10.53,4.21-16.24,4.98-7.81,1.06-15.63,1.42-23.5,1.29-4.9-.08-9.8-.03-14.68.62-2.84.38-3.69,1.05-3.4,3.84.83,7.95.48,15.91.7,23.87.02.55.14,1.1.23,1.65.39,2.35,2.28,3.14,4.18,1.58,1.44-1.18,2.99-1.81,4.8-2.12,2.49-.43,4.78-1.51,6.98-2.73,1.33-.74,1.43-1.73.33-2.79-.12-.12-.26-.21-.38-.33q-1.65-1.5-3.05.12c-1.32,1.53-2.85,2.82-4.62,3.81-1.45.82-2.99.52-3.86-.71-.83-1.17-.61-2.64.65-3.71.93-.79,2-1.41,2.92-2.22,1.97-1.73,2.16-3.01.83-5.28-.54-.93-.99-1.87-1.19-2.92-.28-1.44.47-2.79,1.8-3.16,1.41-.39,2.58.02,3.18,1.41,1.05,2.41,2.98,4.15,4.55,6.15.42.53.82.65,1.34.04.92-1.09,2.08-1.55,3.41-.78,1.31.75,1.7,1.91,1.43,3.42-.27,1.53-.4,3.1-.45,4.65-.14,3.93-1.92,6.61-5.67,8-2.41.89-4.81,1.76-7.31,2.37-1.75.42-2.07,1.03-1.55,2.77.96,3.23,2.88,4.39,6.08,3.32,6.92-2.3,13.95-4.29,20.6-7.36,2.59-1.2,3.99-3.52,5.4-5.76,2.88-4.56,5.27-9.44,8.83-13.56,1.62-1.88,3.53-3.22,5.97-3.74,2.06-.44,3.25.24,3.7,2.28.2.89.58,1.16,1.44,1.22,2.21.15,3.28,1.12,3.22,2.79-.06,1.58-1.29,2.53-3.43,2.67-2.33.15-4.66.39-7,.47-1.4.05-2.27.71-2.93,1.84-1.7,2.88-3.51,5.69-5.11,8.62-2.37,4.34-5.76,7.41-10.35,9.27-6.31,2.55-12.67,4.9-19.25,6.66-6.19,1.66-9.38-.51-12.26-6.71-.53-1.14-.97-1.73-2.3-1.89-3.62-.45-5.15-1.97-6-5.52-.95-3.94-.63-7.98-.85-11.97-.26-4.66.19-9.36-.46-14.01-.06-.44-.04-.89-.05-1.34-.09-5.59,2.53-8.69,8.07-9.6,5.42-.9,10.89-.6,16.34-.65Z"/>
  <path d="M71.93,17.85c0-1.72-.05-3.45.02-5.17.07-1.77,1.11-2.79,2.68-2.79,1.51,0,2.71,1.11,2.74,2.77.06,3.5.07,7,0,10.5-.04,1.72-1.18,2.78-2.71,2.78-1.62,0-2.62-1.07-2.72-2.93,0-.11,0-.22,0-.33,0-1.61,0-3.22,0-4.84,0,0,.01,0,.02,0Z"/>
  <path d="M66.63,25.64c-.08,1.02-.54,1.87-1.55,2.32-1.04.46-2.18.49-2.93-.42-2.23-2.69-4.37-5.47-6.21-8.44-.79-1.27-.27-2.81.89-3.51,1.29-.78,2.5-.57,3.42.59,2,2.53,3.93,5.1,5.87,7.67.38.5.54,1.09.52,1.79Z"/>
  <path d="M84.62,27.03c-1.12-.06-1.87-.66-2.35-1.62-.46-.93-.43-1.88.3-2.65,2.38-2.51,4.97-4.8,7.68-6.93,1.16-.92,2.46-.7,3.44.43,1.01,1.17,1.03,2.52,0,3.64-1.21,1.3-2.57,2.46-3.9,3.65-1.04.93-2.14,1.79-3.19,2.69-.57.49-1.2.81-1.97.8Z"/>
</svg>